# xmcd
#
# Track frame offsets:
#	150
#	13815
#	26367
#	38307
#	51855
#	63339
#	79959
#	93879
#	106251
#	116055
#	126519
#	136455
#	146991
#	157590
#
# Disc length: 2235 seconds
#
# Revision: 0
# Processed by: cddbd v1.5.2PL0 Copyright (c) Steve Scherf et al.
# Submitted via: EasyCDDAExtractor 11.0.0.1
#
DISCID=b508b90e
DTITLE=Daphna Creek - Gospel Tracks
DYEAR=2006
DGENRE=Country
TTITLE0=Long Black Train
TTITLE1=Just A Little Talk With Jesus
TTITLE2=Angels In Disguise
TTITLE3=Fire And Brimstone Man
TTITLE4=I Know Who Holds Tomorrow
TTITLE5=Dancin' With The Angels
TTITLE6=When The Angels Sing
TTITLE7=Daphna's Big Day
TTITLE8=Meet Me Over On The Other Side
TTITLE9=Life's Railway To Heaven
TTITLE10=Keep Your Feet On The Ground
TTITLE11=Far Side Banks Of Jordan
TTITLE12=Roll On Jordan
TTITLE13=Little Mountain Church House
EXTD=
EXTT0=
EXTT1=
EXTT2=
EXTT3=
EXTT4=
EXTT5=
EXTT6=
EXTT7=
EXTT8=
EXTT9=
EXTT10=
EXTT11=
EXTT12=
EXTT13=
PLAYORDER=
